<mxfile host="app.diagrams.net" modified="2024-06-25T23:31:32.895Z" agent="Mozilla/5.0 (Windows NT 10.0; Win64; x64) AppleWebKit/537.36 (KHTML, like Gecko) Chrome/126.0.0.0 Safari/537.36" etag="BmegMYYEUO0ykGDPvY3c" version="24.6.3" type="google">
  <diagram name="Página-1" id="D4xfMR_tDfcY7prQFISW">
    <mxGraphModel grid="1" page="1" gridSize="10" guides="1" tooltips="1" connect="1" arrows="1" fold="1" pageScale="1" pageWidth="1169" pageHeight="827" math="0" shadow="0">
      <root>
        <mxCell id="0" />
        <mxCell id="1" parent="0" />
        <mxCell id="BfA_5P8bwOXLROu7K_P--1" value="&lt;h1 style=&quot;margin-top: 0px;&quot;&gt;&lt;font style=&quot;font-size: 20px;&quot;&gt;Cargar consumo a la tarjeta de crédito&lt;/font&gt;&lt;/h1&gt;&lt;p style=&quot;font-size: 11px;&quot;&gt;Diagrama de secuencia para realizar un cargo de consumo a la tarjeta de crédito.&lt;/p&gt;" style="text;html=1;whiteSpace=wrap;overflow=hidden;rounded=0;fillColor=#eeeeee;strokeColor=#36393d;fontSize=11;" vertex="1" parent="1">
          <mxGeometry x="10" y="10" width="490" height="70" as="geometry" />
        </mxCell>
        <mxCell id="BfA_5P8bwOXLROu7K_P--43" value="" style="shape=umlLifeline;perimeter=lifelinePerimeter;whiteSpace=wrap;html=1;container=1;dropTarget=0;collapsible=0;recursiveResize=0;outlineConnect=0;portConstraint=eastwest;newEdgeStyle={&quot;curved&quot;:0,&quot;rounded&quot;:0};participant=umlActor;" vertex="1" parent="1">
          <mxGeometry x="100" y="130" width="20" height="470" as="geometry" />
        </mxCell>
        <mxCell id="BfA_5P8bwOXLROu7K_P--57" value="" style="html=1;points=[[0,0,0,0,5],[0,1,0,0,-5],[1,0,0,0,5],[1,1,0,0,-5]];perimeter=orthogonalPerimeter;outlineConnect=0;targetShapes=umlLifeline;portConstraint=eastwest;newEdgeStyle={&quot;curved&quot;:0,&quot;rounded&quot;:0};fillColor=#ffcc99;strokeColor=#36393d;" vertex="1" parent="BfA_5P8bwOXLROu7K_P--43">
          <mxGeometry x="5" y="70" width="10" height="30" as="geometry" />
        </mxCell>
        <mxCell id="ppfvb2NsNzk55--3sPmV-1" value="" style="html=1;points=[[0,0,0,0,5],[0,1,0,0,-5],[1,0,0,0,5],[1,1,0,0,-5]];perimeter=orthogonalPerimeter;outlineConnect=0;targetShapes=umlLifeline;portConstraint=eastwest;newEdgeStyle={&quot;curved&quot;:0,&quot;rounded&quot;:0};fillColor=#ffcc99;strokeColor=#36393d;" vertex="1" parent="BfA_5P8bwOXLROu7K_P--43">
          <mxGeometry x="5" y="200" width="10" height="50" as="geometry" />
        </mxCell>
        <mxCell id="BfA_5P8bwOXLROu7K_P--44" value="Sistema&lt;br&gt;Bancario" style="shape=umlLifeline;perimeter=lifelinePerimeter;whiteSpace=wrap;html=1;container=1;dropTarget=0;collapsible=0;recursiveResize=0;outlineConnect=0;portConstraint=eastwest;newEdgeStyle={&quot;curved&quot;:0,&quot;rounded&quot;:0};" vertex="1" parent="1">
          <mxGeometry x="360" y="130" width="100" height="470" as="geometry" />
        </mxCell>
        <mxCell id="BfA_5P8bwOXLROu7K_P--56" value="" style="html=1;points=[[0,0,0,0,5],[0,1,0,0,-5],[1,0,0,0,5],[1,1,0,0,-5]];perimeter=orthogonalPerimeter;outlineConnect=0;targetShapes=umlLifeline;portConstraint=eastwest;newEdgeStyle={&quot;curved&quot;:0,&quot;rounded&quot;:0};fillColor=#cce5ff;strokeColor=#36393d;" vertex="1" parent="BfA_5P8bwOXLROu7K_P--44">
          <mxGeometry x="45" y="80" width="10" height="370" as="geometry" />
        </mxCell>
        <mxCell id="BfA_5P8bwOXLROu7K_P--45" value="Cliente" style="text;align=center;fontStyle=1;verticalAlign=middle;spacingLeft=3;spacingRight=3;strokeColor=none;rotatable=0;points=[[0,0.5],[1,0.5]];portConstraint=eastwest;html=1;" vertex="1" parent="1">
          <mxGeometry x="70" y="104" width="80" height="26" as="geometry" />
        </mxCell>
        <mxCell id="BfA_5P8bwOXLROu7K_P--48" value="" style="shape=umlLifeline;perimeter=lifelinePerimeter;whiteSpace=wrap;html=1;container=1;dropTarget=0;collapsible=0;recursiveResize=0;outlineConnect=0;portConstraint=eastwest;newEdgeStyle={&quot;curved&quot;:0,&quot;rounded&quot;:0};participant=umlEntity;" vertex="1" parent="1">
          <mxGeometry x="660" y="130" width="40" height="470" as="geometry" />
        </mxCell>
        <mxCell id="bcULmBKe0mkSa0cwNDqA-2" value="" style="html=1;points=[[0,0,0,0,5],[0,1,0,0,-5],[1,0,0,0,5],[1,1,0,0,-5]];perimeter=orthogonalPerimeter;outlineConnect=0;targetShapes=umlLifeline;portConstraint=eastwest;newEdgeStyle={&quot;curved&quot;:0,&quot;rounded&quot;:0};fillColor=#cdeb8b;strokeColor=#36393d;" vertex="1" parent="BfA_5P8bwOXLROu7K_P--48">
          <mxGeometry x="15" y="111" width="10" height="59" as="geometry" />
        </mxCell>
        <mxCell id="XdA4SDEO-pm26UPTA_wm-1" value="" style="html=1;points=[[0,0,0,0,5],[0,1,0,0,-5],[1,0,0,0,5],[1,1,0,0,-5]];perimeter=orthogonalPerimeter;outlineConnect=0;targetShapes=umlLifeline;portConstraint=eastwest;newEdgeStyle={&quot;curved&quot;:0,&quot;rounded&quot;:0};fillColor=#cdeb8b;strokeColor=#36393d;" vertex="1" parent="BfA_5P8bwOXLROu7K_P--48">
          <mxGeometry x="15" y="300" width="10" height="70" as="geometry" />
        </mxCell>
        <mxCell id="BfA_5P8bwOXLROu7K_P--49" value="Base de Datos" style="text;align=center;fontStyle=1;verticalAlign=middle;spacingLeft=3;spacingRight=3;strokeColor=none;rotatable=0;points=[[0,0.5],[1,0.5]];portConstraint=eastwest;html=1;" vertex="1" parent="1">
          <mxGeometry x="505" y="104" width="90" height="26" as="geometry" />
        </mxCell>
        <mxCell id="BfA_5P8bwOXLROu7K_P--55" value="Cargar consumos&lt;br&gt;(cliente, tarjeta de credito, monto)" style="html=1;verticalAlign=bottom;endArrow=block;curved=0;rounded=0;" edge="1" parent="1" target="BfA_5P8bwOXLROu7K_P--56">
          <mxGeometry x="-0.002" width="80" relative="1" as="geometry">
            <mxPoint x="115" y="221" as="sourcePoint" />
            <mxPoint x="285" y="221" as="targetPoint" />
            <mxPoint as="offset" />
          </mxGeometry>
        </mxCell>
        <mxCell id="BfA_5P8bwOXLROu7K_P--58" value="Consultar información (cliente)" style="html=1;verticalAlign=bottom;endArrow=block;curved=0;rounded=0;" edge="1" parent="1">
          <mxGeometry width="80" relative="1" as="geometry">
            <mxPoint x="415" y="253" as="sourcePoint" />
            <mxPoint x="675" y="253" as="targetPoint" />
          </mxGeometry>
        </mxCell>
        <mxCell id="BfA_5P8bwOXLROu7K_P--86" value="Mostrar Error &lt;br&gt;(&quot;Error al procesar la carga de consumos&quot;)" style="html=1;verticalAlign=bottom;endArrow=block;curved=0;rounded=0;exitX=0;exitY=1;exitDx=0;exitDy=-5;exitPerimeter=0;" edge="1" parent="1" source="BfA_5P8bwOXLROu7K_P--56">
          <mxGeometry width="80" relative="1" as="geometry">
            <mxPoint x="330" y="573.3099999999997" as="sourcePoint" />
            <mxPoint x="115" y="573.3099999999997" as="targetPoint" />
          </mxGeometry>
        </mxCell>
        <mxCell id="bcULmBKe0mkSa0cwNDqA-4" value="Datos del cliente y tarjetas de crédito o &lt;br&gt;Error(&quot;Datos inválidos&quot;)" style="html=1;verticalAlign=bottom;endArrow=block;curved=0;rounded=0;dashed=1;" edge="1" parent="1">
          <mxGeometry width="80" relative="1" as="geometry">
            <mxPoint x="675" y="291.5000000000001" as="sourcePoint" />
            <mxPoint x="415" y="291.5000000000001" as="targetPoint" />
          </mxGeometry>
        </mxCell>
        <mxCell id="bcULmBKe0mkSa0cwNDqA-15" value="&lt;b&gt;alt&lt;/b&gt;" style="shape=umlFrame;whiteSpace=wrap;html=1;pointerEvents=0;width=80;height=15;fillColor=#f8cecc;strokeColor=#b85450;" vertex="1" parent="1">
          <mxGeometry x="80" y="390" width="640" height="220" as="geometry" />
        </mxCell>
        <mxCell id="NwqncXRK5OJ0vS-3r9_5-4" value="Seleccionar tarjeta&lt;br&gt;(tarjeta de crédito)" style="html=1;verticalAlign=bottom;endArrow=block;curved=0;rounded=0;" edge="1" parent="1" source="BfA_5P8bwOXLROu7K_P--56">
          <mxGeometry width="80" relative="1" as="geometry">
            <mxPoint x="330" y="339" as="sourcePoint" />
            <mxPoint x="115" y="339" as="targetPoint" />
          </mxGeometry>
        </mxCell>
        <mxCell id="NwqncXRK5OJ0vS-3r9_5-10" value="[datos inválidos]" style="text;align=center;fontStyle=1;verticalAlign=middle;spacingLeft=3;spacingRight=3;rotatable=0;points=[[0,0.5],[1,0.5]];portConstraint=eastwest;html=1;fontSize=10;fillColor=#f8cecc;strokeColor=#b85450;" vertex="1" parent="1">
          <mxGeometry x="600" y="521" width="120" height="20" as="geometry" />
        </mxCell>
        <mxCell id="NwqncXRK5OJ0vS-3r9_5-11" value="" style="endArrow=none;html=1;rounded=0;entryX=0.998;entryY=0.597;entryDx=0;entryDy=0;entryPerimeter=0;exitX=-0.001;exitY=0.627;exitDx=0;exitDy=0;exitPerimeter=0;" edge="1" parent="1" target="bcULmBKe0mkSa0cwNDqA-15">
          <mxGeometry width="50" height="50" relative="1" as="geometry">
            <mxPoint x="80.005" y="520.997" as="sourcePoint" />
            <mxPoint x="354.4549999999999" y="520.997" as="targetPoint" />
          </mxGeometry>
        </mxCell>
        <mxCell id="NwqncXRK5OJ0vS-3r9_5-12" value="[datos válidos]" style="text;align=center;fontStyle=1;verticalAlign=middle;spacingLeft=3;spacingRight=3;rotatable=0;points=[[0,0.5],[1,0.5]];portConstraint=eastwest;html=1;fontSize=10;fillColor=#f8cecc;strokeColor=#b85450;" vertex="1" parent="1">
          <mxGeometry x="600" y="390" width="120" height="20" as="geometry" />
        </mxCell>
        <mxCell id="NwqncXRK5OJ0vS-3r9_5-13" value="" style="html=1;points=[[0,0,0,0,5],[0,1,0,0,-5],[1,0,0,0,5],[1,1,0,0,-5]];perimeter=orthogonalPerimeter;outlineConnect=0;targetShapes=umlLifeline;portConstraint=eastwest;newEdgeStyle={&quot;curved&quot;:0,&quot;rounded&quot;:0};fillColor=#ffcc99;strokeColor=#36393d;" vertex="1" parent="1">
          <mxGeometry x="105" y="491" width="10" height="20" as="geometry" />
        </mxCell>
        <mxCell id="NwqncXRK5OJ0vS-3r9_5-14" value="Mostrar confirmación&lt;br&gt;(confirmación)" style="html=1;verticalAlign=bottom;endArrow=block;curved=0;rounded=0;" edge="1" parent="1" source="BfA_5P8bwOXLROu7K_P--56">
          <mxGeometry width="80" relative="1" as="geometry">
            <mxPoint x="285" y="500.9999999999998" as="sourcePoint" />
            <mxPoint x="115" y="500.9999999999998" as="targetPoint" />
          </mxGeometry>
        </mxCell>
        <mxCell id="A7_Kh4RqBEpTT9U6u_Qc-9" value="" style="html=1;points=[[0,0,0,0,5],[0,1,0,0,-5],[1,0,0,0,5],[1,1,0,0,-5]];perimeter=orthogonalPerimeter;outlineConnect=0;targetShapes=umlLifeline;portConstraint=eastwest;newEdgeStyle={&quot;curved&quot;:0,&quot;rounded&quot;:0};fillColor=#ffcc99;strokeColor=#36393d;" vertex="1" parent="1">
          <mxGeometry x="105" y="561" width="10" height="20" as="geometry" />
        </mxCell>
        <mxCell id="ppfvb2NsNzk55--3sPmV-2" value="Confirmar carga (monto)" style="html=1;verticalAlign=bottom;endArrow=block;curved=0;rounded=0;" edge="1" parent="1" target="BfA_5P8bwOXLROu7K_P--56">
          <mxGeometry width="80" relative="1" as="geometry">
            <mxPoint x="115" y="371" as="sourcePoint" />
            <mxPoint x="285" y="371" as="targetPoint" />
            <mxPoint as="offset" />
          </mxGeometry>
        </mxCell>
        <mxCell id="XdA4SDEO-pm26UPTA_wm-2" value="Registrar consumo&lt;br&gt;(cliente, tarjeta de credito, monto)" style="html=1;verticalAlign=bottom;endArrow=block;curved=0;rounded=0;" edge="1" parent="1">
          <mxGeometry width="80" relative="1" as="geometry">
            <mxPoint x="415" y="445" as="sourcePoint" />
            <mxPoint x="675" y="445" as="targetPoint" />
            <mxPoint as="offset" />
          </mxGeometry>
        </mxCell>
        <mxCell id="XdA4SDEO-pm26UPTA_wm-3" value="Confirmación de registro de consumo" style="html=1;verticalAlign=bottom;endArrow=block;curved=0;rounded=0;dashed=1;" edge="1" parent="1">
          <mxGeometry width="80" relative="1" as="geometry">
            <mxPoint x="675" y="487" as="sourcePoint" />
            <mxPoint x="415" y="487" as="targetPoint" />
          </mxGeometry>
        </mxCell>
      </root>
    </mxGraphModel>
  </diagram>
</mxfile>
